<?xml version="1.0" standalone="no"?>
<!DOCTYPE svg PUBLIC "-//W3C//DTD SVG 20010904//EN"
 "http://www.w3.org/TR/2001/REC-SVG-20010904/DTD/svg10.dtd">
<svg version="1.0" xmlns="http://www.w3.org/2000/svg"
 width="385.000000pt" height="385.000000pt" viewBox="0 0 385.000000 385.000000"
 preserveAspectRatio="xMidYMid meet">
<metadata>
Created by potrace 1.16, written by Peter Selinger 2001-2019
</metadata>
<g transform="translate(0.000000,385.000000) scale(0.100000,-0.100000)"
fill="#000000" stroke="none">
<path d="M0 1925 l0 -1925 331 0 c321 0 331 1 347 20 19 23 71 33 105 21 20
-8 21 -10 4 -16 -35 -14 5 -25 96 -25 61 0 87 4 87 12 0 9 3 9 12 0 9 -9 70
-12 214 -12 184 0 203 2 207 18 4 16 5 16 6 0 1 -16 12 -18 87 -18 80 0 88 2
106 25 13 17 29 25 49 25 19 0 32 6 36 17 6 15 7 14 14 -3 5 -14 8 -7 14 28 4
26 5 53 2 60 -3 7 -6 -4 -6 -24 -1 -39 -21 -55 -21 -17 0 11 -4 17 -10 14 -6
-3 -7 1 -4 9 4 11 0 16 -10 16 -15 0 -21 -16 -17 -46 1 -6 -6 -18 -15 -25 -15
-12 -16 -12 -11 6 8 26 -17 59 -46 60 -13 1 -28 4 -34 8 -6 4 -24 2 -39 -3
-20 -8 -29 -8 -35 1 -4 6 -12 8 -18 5 -6 -4 -11 -2 -11 4 0 6 -5 8 -10 5 -6
-3 -10 0 -10 8 0 15 -68 48 -109 53 -39 5 -51 12 -45 29 4 10 -2 18 -17 24
-13 5 -19 11 -14 12 6 1 -12 5 -40 8 -42 5 -50 10 -53 29 -2 12 -9 22 -15 21
-36 -4 -46 2 -49 34 -2 24 -7 31 -20 29 -13 -2 -18 4 -18 23 0 16 -6 25 -15
25 -19 0 -19 3 6 42 16 25 20 28 16 11 -3 -16 0 -23 9 -23 9 0 14 11 14 28 l0
27 20 -25 c11 -14 20 -21 20 -16 0 5 6 4 13 -2 21 -17 87 -18 97 -2 7 11 10 6
10 -17 0 -38 22 -45 42 -14 9 14 16 17 24 10 16 -13 54 9 47 27 -2 7 3 11 14
11 13 -2 19 6 21 26 3 24 32 41 32 18 0 -5 21 -9 47 -8 l48 2 3 -39 c3 -47 8
-54 25 -36 9 10 9 11 0 6 -7 -4 -13 -3 -13 1 0 12 83 12 98 0 35 -28 33 47 -2
98 -12 17 -22 32 -24 34 -1 3 -11 -5 -22 -17 -12 -12 -22 -22 -24 -22 -3 0
-15 21 -28 48 -19 39 -23 43 -26 25 -4 -28 -22 -31 -22 -4 0 31 -18 34 -22 4
-2 -16 -4 8 -5 53 0 44 -4 90 -7 102 -6 17 -2 24 16 31 13 6 19 10 14 10 -5 1
-1 11 10 23 17 19 17 21 2 15 -21 -8 -38 19 -38 59 0 32 -26 65 -45 58 -17 -7
-75 47 -75 69 0 29 -53 77 -105 95 -33 12 -50 24 -49 34 1 10 -4 14 -12 11 -7
-2 -28 7 -47 21 -31 24 -35 25 -41 10 -4 -9 0 -24 9 -34 8 -9 15 -23 16 -31 0
-13 18 -39 99 -142 19 -24 50 -54 68 -66 17 -12 32 -29 32 -40 0 -25 36 -65
54 -58 23 9 44 -15 54 -66 9 -45 8 -48 -19 -72 -16 -13 -32 -38 -35 -54 -6
-27 -24 -45 -24 -23 0 11 -52 8 -74 -5 -13 -7 -30 -8 -50 -2 -17 5 -48 7 -69
3 -21 -3 -54 -6 -74 -6 -26 0 -37 -5 -40 -18 -3 -10 -16 -21 -29 -24 -22 -6
-24 -10 -19 -44 4 -24 3 -32 -3 -24 -7 10 -13 4 -24 -24 -20 -49 -30 -31 -12
21 17 51 18 75 1 75 -14 0 -47 -32 -66 -65 -10 -17 -10 -16 -5 10 4 17 12 33
18 37 8 5 6 12 -5 24 -21 20 -52 12 -68 -19 l-11 -22 6 23 c4 17 1 22 -13 22
-16 1 -16 2 -2 13 23 18 31 57 12 57 -10 0 -14 6 -10 19 8 32 -11 49 -68 61
-49 10 -61 9 -113 -10 -51 -19 -156 -66 -204 -91 -54 -28 -8 17 57 57 28 16
71 41 98 54 57 30 47 37 -24 16 -29 -9 -62 -16 -73 -16 -36 0 -3 16 59 29 102
21 125 31 125 52 0 15 -5 19 -17 15 -57 -17 -114 -27 -125 -23 -7 2 5 9 27 15
22 7 49 19 60 27 19 15 16 16 -41 12 -59 -5 -152 -37 -164 -58 -4 -6 -18 -4
-39 4 l-33 14 36 17 c40 19 47 36 16 36 -39 0 -19 17 26 23 25 2 53 12 62 21
14 14 12 15 -24 10 -21 -3 -52 -10 -69 -14 -51 -15 -131 -23 -120 -13 11 10
99 36 255 74 52 12 100 27 105 32 6 6 1 8 -15 4 -14 -3 -43 -2 -65 3 l-40 8
43 1 c23 0 42 6 42 11 0 6 10 10 23 10 12 0 29 5 37 10 13 8 13 10 -2 10 -9 0
-39 -4 -65 -9 -72 -14 -302 -23 -282 -12 9 6 42 15 75 21 53 10 88 16 213 36
l34 6 -28 24 -28 24 29 0 29 1 -26 14 c-15 8 -29 21 -33 30 -3 8 -15 15 -27
15 -15 0 -19 5 -15 15 8 22 -35 46 -83 47 -30 0 -44 6 -51 19 -14 24 -13 29 6
29 14 0 14 3 4 15 -7 8 -20 15 -28 15 -12 0 -13 3 -4 12 9 9 8 16 -5 30 -15
17 -15 18 8 18 39 0 53 14 40 38 -6 12 -19 25 -27 30 -13 7 -8 11 22 17 32 6
36 9 24 18 -16 13 -20 50 -7 63 12 12 8 22 -13 29 -10 3 -29 23 -41 43 -13 20
-28 40 -33 44 -15 11 1 10 22 -1 9 -5 37 -14 61 -21 23 -6 50 -14 60 -17 9 -3
4 4 -12 14 -15 11 -25 22 -22 25 4 3 -8 16 -24 28 -17 12 -31 30 -31 40 0 10
-5 22 -10 25 -6 4 -8 11 -4 16 3 5 10 7 15 4 5 -4 9 -2 9 4 0 5 -6 12 -12 14
-7 3 -2 6 12 7 23 1 24 2 7 14 -10 8 -15 20 -11 29 7 19 -42 32 -86 22 -30 -7
-39 2 -19 22 5 5 12 33 14 62 3 33 12 59 25 73 11 12 20 34 20 50 0 15 5 28
10 28 18 0 10 29 -10 35 -11 3 -20 11 -20 16 0 6 9 7 21 4 18 -6 20 -4 14 15
-5 17 -2 23 14 27 22 6 27 18 12 27 -5 3 -12 27 -16 53 -4 27 -11 53 -16 59
-5 6 -16 44 -24 85 -17 82 -10 111 29 124 18 6 15 8 -17 14 -20 5 -41 11 -45
16 -4 4 4 4 17 0 17 -5 21 -4 16 4 -4 7 -1 18 5 26 10 12 9 15 -4 15 -9 0 -16
2 -16 5 0 9 36 41 54 48 9 4 15 11 11 17 -7 11 46 40 74 40 11 0 25 9 31 20 9
18 8 20 -17 21 -25 0 -26 1 -8 9 l20 9 -20 0 c-11 0 -51 -6 -90 -14 -70 -15
-126 -19 -95 -8 8 3 26 14 39 25 14 11 27 15 30 9 4 -6 12 -6 20 -2 11 7 9 11
-8 20 -24 13 -28 31 -6 31 8 0 15 5 15 10 0 6 -9 10 -20 10 -11 0 -20 4 -20 9
0 5 -10 7 -22 5 l-23 -5 23 12 c25 14 31 34 6 25 -27 -10 -10 18 20 33 18 8
24 16 17 20 -6 4 -9 15 -5 24 8 21 -6 21 -53 2 -44 -19 -49 -19 -57 1 -7 18 6
32 57 59 39 20 45 30 25 38 -7 2 7 13 32 25 33 16 39 21 23 22 -13 0 -23 -4
-23 -10 0 -14 -26 -12 -42 3 -8 8 -34 13 -65 12 -29 -1 -53 3 -53 7 0 4 -8 8
-17 8 -36 0 0 14 42 16 25 1 51 8 60 18 9 9 25 16 36 16 10 0 19 4 19 10 0 12
-55 2 -93 -17 -49 -25 -40 -7 13 27 46 29 68 64 38 59 -7 -1 -21 1 -31 6 -14
6 -15 10 -6 21 6 8 15 12 19 9 5 -3 11 -1 15 5 4 6 -5 10 -20 10 -15 0 -24 4
-20 10 3 6 18 7 32 4 19 -5 24 -3 21 7 -2 8 -26 18 -51 23 -45 9 -65 26 -31
26 8 0 22 7 30 15 8 8 20 13 27 11 7 -1 9 -1 4 1 -4 3 -5 9 -1 14 3 5 2 9 -3
8 -19 -3 -27 2 -15 9 8 6 -1 15 -29 30 -22 12 -47 22 -55 22 -8 0 -14 7 -14
15 0 19 21 19 46 0 10 -8 26 -14 34 -14 9 0 6 5 -7 11 -13 6 -23 15 -23 20 0
4 -13 8 -30 8 -21 0 -30 5 -30 16 0 12 7 15 25 12 14 -3 25 -2 25 1 -1 16 -17
29 -40 32 -22 4 -25 9 -25 49 -1 25 -6 55 -13 66 -6 12 -8 24 -5 28 3 3 -15 6
-40 6 l-47 0 0 -1925z"/>
<path d="M325 3808 c37 -42 120 -123 140 -136 6 -4 18 -20 28 -35 10 -15 29
-32 42 -37 13 -5 29 -19 36 -32 17 -32 52 -68 67 -68 6 0 12 -6 12 -12 0 -9 3
-8 9 1 8 12 11 10 16 -10 5 -22 62 -69 84 -69 5 0 13 -9 16 -20 3 -11 10 -20
15 -20 5 0 22 -12 39 -26 17 -14 31 -23 31 -20 0 4 14 -8 30 -26 75 -81 146
-148 156 -148 6 0 19 -9 29 -20 11 -12 51 -41 91 -65 l73 -44 198 5 c109 2
263 6 343 8 159 4 252 11 331 26 50 10 99 5 99 -10 0 -7 134 -31 203 -35 21
-2 43 -8 51 -14 7 -6 25 -12 40 -13 15 -1 32 -8 38 -15 6 -7 28 -13 49 -13 35
0 99 -18 141 -40 10 -6 40 -5 75 1 73 13 194 29 253 33 56 3 159 33 180 50 8
8 51 33 95 55 95 50 199 110 275 160 30 20 59 38 64 40 16 7 120 75 149 98
l27 21 0 236 0 236 -1781 0 -1781 0 37 -42z"/>
<path d="M673 2183 c-18 -9 -33 -20 -33 -25 0 -4 -16 -25 -35 -47 -42 -47 -44
-55 -6 -48 39 8 51 -8 51 -69 0 -62 19 -111 54 -141 34 -30 42 -29 22 2 -20
30 -49 115 -42 122 11 11 47 -11 95 -60 28 -28 51 -56 51 -62 0 -14 97 -57
128 -57 16 0 26 -7 30 -20 4 -17 12 -19 76 -16 l71 3 1 -30 c2 -47 4 -51 15
-32 6 9 12 48 15 85 7 101 -33 202 -114 289 -33 35 -90 73 -110 73 -7 0 -32 9
-55 20 -59 29 -172 36 -214 13z"/>
<path d="M2521 1944 c11 -14 5 -15 -62 -9 -41 4 -79 8 -85 10 -24 7 -112 -19
-169 -51 -47 -26 -67 -45 -94 -89 -29 -48 -32 -59 -23 -81 14 -29 51 -46 69
-32 9 7 15 5 19 -6 8 -22 45 -20 51 2 6 24 61 29 70 6 4 -11 13 -14 29 -10 13
4 24 2 24 -2 0 -5 28 -8 63 -6 34 2 70 4 80 5 9 0 17 4 17 10 0 14 58 11 63
-3 3 -10 9 -10 26 0 11 6 30 12 42 12 18 0 21 4 16 28 -3 15 -2 34 4 42 6 11
9 4 9 -22 0 -21 5 -38 11 -38 16 0 50 20 78 46 13 13 29 20 34 17 6 -3 7 -1 3
6 -4 6 6 24 23 42 35 35 38 47 14 55 -10 3 -27 10 -38 14 -34 15 -58 19 -115
21 -30 2 -69 10 -87 20 -17 10 -34 15 -37 12 -3 -4 -6 -1 -6 5 0 7 -10 12 -21
12 -18 0 -20 -2 -8 -16z"/>
<path d="M3823 1920 c-32 -39 -60 -188 -37 -197 8 -3 10 -12 5 -26 -4 -12 -6
-40 -5 -62 0 -22 -6 -50 -14 -63 -17 -27 -17 -116 0 -177 6 -22 10 -44 9 -50
-1 -5 6 -15 15 -22 17 -12 17 -13 -1 -13 -10 0 -15 -3 -12 -6 3 -4 2 -14 -3
-23 -4 -9 -11 -37 -15 -61 -4 -24 -11 -52 -16 -62 -5 -9 -9 -26 -9 -37 0 -12
-7 -21 -15 -21 -18 0 -18 -5 -4 -31 9 -17 7 -21 -9 -26 -17 -4 -19 -12 -16
-68 3 -56 1 -66 -18 -79 -17 -12 -18 -16 -7 -21 24 -9 16 -57 -10 -67 -15 -5
-21 -14 -17 -23 3 -8 -3 -19 -12 -25 -13 -8 -14 -12 -4 -17 10 -4 9 -9 -5 -20
-13 -10 -15 -16 -5 -19 19 -8 14 -22 -10 -30 -27 -8 -49 -29 -41 -38 4 -3 -1
-6 -10 -6 -20 0 -23 -16 -4 -23 9 -4 9 -7 -1 -14 -9 -7 -6 -13 13 -23 14 -7
25 -17 25 -22 0 -13 -28 -9 -34 5 -3 6 -5 3 -3 -8 1 -11 19 -29 42 -41 22 -13
45 -27 52 -33 7 -6 14 -11 16 -11 3 0 27 -20 53 -45 27 -25 57 -45 67 -45 10
0 16 -4 13 -9 -7 -11 22 -23 35 -16 5 4 6 -1 3 -9 -3 -9 -12 -16 -20 -16 -17
0 -18 -17 -1 -23 16 -5 -8 -36 -38 -47 -15 -7 -8 -9 28 -9 46 -1 47 0 47 29 0
17 -5 30 -12 30 -10 0 -10 2 0 8 10 7 12 178 10 823 l-3 815 -22 -26z"/>
</g>
</svg>
